<mxfile host="app.diagrams.net" modified="2022-07-08T05:01:04.370Z" agent="5.0 (Windows NT 10.0; Win64; x64) AppleWebKit/537.36 (KHTML, like Gecko) Chrome/102.0.0.0 Safari/537.36" etag="AMSW5RkID6WH3WG56szK" version="19.0.3" type="github">
  <diagram id="aiZMqHrLp7Erby2NztfN" name="Page-1">
    <mxGraphModel dx="1185" dy="635" grid="1" gridSize="10" guides="1" tooltips="1" connect="1" arrows="1" fold="1" page="1" pageScale="1" pageWidth="827" pageHeight="1169" math="0" shadow="0">
      <root>
        <mxCell id="0" />
        <mxCell id="1" parent="0" />
        <mxCell id="EQGdP0ixxM4eeON9aHRK-1" value="" style="rounded=0;whiteSpace=wrap;html=1;sketch=1;align=left;horizontal=1;" vertex="1" parent="1">
          <mxGeometry x="90" y="160" width="520" height="340" as="geometry" />
        </mxCell>
        <mxCell id="EQGdP0ixxM4eeON9aHRK-2" value="docker0" style="rounded=0;whiteSpace=wrap;html=1;sketch=1;" vertex="1" parent="1">
          <mxGeometry x="264" y="160" width="150" height="60" as="geometry" />
        </mxCell>
        <mxCell id="EQGdP0ixxM4eeON9aHRK-4" style="edgeStyle=orthogonalEdgeStyle;rounded=0;sketch=1;orthogonalLoop=1;jettySize=auto;html=1;" edge="1" parent="1" source="EQGdP0ixxM4eeON9aHRK-3">
          <mxGeometry relative="1" as="geometry">
            <mxPoint x="340" y="150" as="targetPoint" />
          </mxGeometry>
        </mxCell>
        <mxCell id="EQGdP0ixxM4eeON9aHRK-3" value="Bridge: 工作在数据链路层" style="text;html=1;strokeColor=none;fillColor=none;align=left;verticalAlign=middle;rounded=0;sketch=1;labelBackgroundColor=#FFFFFF;whiteSpace=wrap;" vertex="1" parent="1">
          <mxGeometry x="270" y="80" width="140" height="30" as="geometry" />
        </mxCell>
        <mxCell id="EQGdP0ixxM4eeON9aHRK-6" value="&lt;div&gt;Veth Pair：被创建出来后，总是以两张虚拟网卡（Veth Peer）的形式成对出现的。&lt;/div&gt;&lt;div&gt;并且，从其中一个“网卡”发出的数据包，可以直接出现在与它对应的另一张“网卡”上&lt;/div&gt;" style="text;html=1;strokeColor=none;fillColor=none;align=center;verticalAlign=middle;whiteSpace=wrap;rounded=0;labelBackgroundColor=#FFFFFF;sketch=1;" vertex="1" parent="1">
          <mxGeometry x="530" y="60" width="480" height="50" as="geometry" />
        </mxCell>
        <mxCell id="EQGdP0ixxM4eeON9aHRK-8" value="Nginx-1" style="rounded=0;whiteSpace=wrap;html=1;labelBackgroundColor=#FFFFFF;sketch=1;" vertex="1" parent="1">
          <mxGeometry x="130" y="370" width="140" height="100" as="geometry" />
        </mxCell>
        <mxCell id="EQGdP0ixxM4eeON9aHRK-9" value="Veth Peer 1" style="rounded=0;whiteSpace=wrap;html=1;labelBackgroundColor=#EA6B66;sketch=0;fillColor=#FF3399;strokeColor=#6c8ebf;" vertex="1" parent="1">
          <mxGeometry x="160" y="370" width="70" height="20" as="geometry" />
        </mxCell>
        <mxCell id="EQGdP0ixxM4eeON9aHRK-11" value="Veth Peer 1" style="rounded=0;whiteSpace=wrap;html=1;labelBackgroundColor=#EA6B66;sketch=0;fillColor=#FF3399;strokeColor=#6c8ebf;" vertex="1" parent="1">
          <mxGeometry x="264" y="200" width="70" height="20" as="geometry" />
        </mxCell>
        <mxCell id="EQGdP0ixxM4eeON9aHRK-15" value="Nginx-2" style="rounded=0;whiteSpace=wrap;html=1;labelBackgroundColor=#FFFFFF;sketch=1;" vertex="1" parent="1">
          <mxGeometry x="414" y="370" width="140" height="100" as="geometry" />
        </mxCell>
        <mxCell id="EQGdP0ixxM4eeON9aHRK-16" value="Veth Peer 2" style="rounded=0;whiteSpace=wrap;html=1;labelBackgroundColor=#66FFB3;sketch=0;fillColor=#66FFB3;strokeColor=#6c8ebf;" vertex="1" parent="1">
          <mxGeometry x="449" y="370" width="70" height="20" as="geometry" />
        </mxCell>
        <mxCell id="EQGdP0ixxM4eeON9aHRK-17" value="Veth Peer 2" style="rounded=0;whiteSpace=wrap;html=1;labelBackgroundColor=#66FFB3;sketch=0;fillColor=#66FFB3;strokeColor=#6c8ebf;" vertex="1" parent="1">
          <mxGeometry x="344" y="200" width="70" height="20" as="geometry" />
        </mxCell>
        <mxCell id="EQGdP0ixxM4eeON9aHRK-22" value="" style="endArrow=classic;startArrow=classic;html=1;rounded=0;sketch=1;entryX=0.206;entryY=1.056;entryDx=0;entryDy=0;entryPerimeter=0;exitX=0.5;exitY=0;exitDx=0;exitDy=0;" edge="1" parent="1" source="EQGdP0ixxM4eeON9aHRK-9" target="EQGdP0ixxM4eeON9aHRK-2">
          <mxGeometry width="50" height="50" relative="1" as="geometry">
            <mxPoint x="200" y="360" as="sourcePoint" />
            <mxPoint x="240" y="310" as="targetPoint" />
          </mxGeometry>
        </mxCell>
        <mxCell id="EQGdP0ixxM4eeON9aHRK-23" value="" style="endArrow=classic;startArrow=classic;html=1;rounded=0;sketch=1;exitX=0.5;exitY=0;exitDx=0;exitDy=0;entryX=0.5;entryY=1;entryDx=0;entryDy=0;" edge="1" parent="1" source="EQGdP0ixxM4eeON9aHRK-16" target="EQGdP0ixxM4eeON9aHRK-17">
          <mxGeometry width="50" height="50" relative="1" as="geometry">
            <mxPoint x="510" y="360" as="sourcePoint" />
            <mxPoint x="410" y="230" as="targetPoint" />
          </mxGeometry>
        </mxCell>
      </root>
    </mxGraphModel>
  </diagram>
</mxfile>
